<svg xmlns="http://www.w3.org/2000/svg" width="178" height="40" viewBox="0 0 178 40" fill="none"><path d="M62.9529 18.0781C62.1729 16.9844 61.1067 16.4375 59.7546 16.4375C58.2984 16.4375 57.1803 16.9583 56.4002 18C55.6201 19.0417 55.2301 20.474 55.2301 22.2969V33H49.9255V6.125H52.5778C53.3059 6.125 53.9299 6.38542 54.45 6.90625C54.9701 7.42708 55.2301 8.05208 55.2301 8.78125V14.9531C56.1662 13.3906 57.4923 12.401 59.2085 11.9844C60.9247 11.5677 62.5629 11.6719 64.1231 12.2969C65.5792 12.9219 66.8014 13.9115 67.7895 15.2656C68.7776 16.6198 69.2716 18.4948 69.2716 20.8906V33H64.0451V22.2188C64.0451 21.4375 63.9671 20.7344 63.811 20.1094C63.707 19.4323 63.421 18.7552 62.9529 18.0781Z" fill="white"></path><path d="M83.2196 22.5312C82.4915 22.8958 81.4774 23.2344 80.1772 23.5469C78.9811 23.8073 78.383 23.9375 78.383 23.9375C77.4469 24.1979 76.7709 24.5365 76.3548 24.9531C75.9908 25.526 75.8088 26.099 75.8088 26.6719C75.8088 27.4531 76.0428 28.0781 76.5108 28.5469C76.9789 28.9635 77.655 29.1719 78.5391 29.1719C79.9952 29.1719 81.1393 28.7552 81.9714 27.9219C82.8035 27.0885 83.2196 25.9427 83.2196 24.4844V22.5312ZM84.4677 32.1406C83.3756 32.7135 82.2055 33.0521 80.9573 33.1562C79.7612 33.3125 78.6951 33.3906 77.759 33.3906C75.8868 33.3906 74.2486 32.8958 72.8444 31.9062C71.4403 30.8646 70.7382 29.1719 70.7382 26.8281C70.7382 24.6406 71.3623 23.0781 72.6104 22.1406C73.9105 21.2031 75.5487 20.5781 77.5249 20.2656C77.785 20.2656 78.097 20.2396 78.4611 20.1875C78.8251 20.0833 79.2411 20.0052 79.7092 19.9531C81.9974 19.6406 83.1416 18.9635 83.1416 17.9219C83.1416 17.1406 82.7255 16.6458 81.8934 16.4375C81.1133 16.1771 80.3853 16.0469 79.7092 16.0469C78.9811 16.0469 78.331 16.151 77.759 16.3594C77.1869 16.5677 76.7709 16.9583 76.5108 17.5312H71.2843C71.4923 15.9167 72.2204 14.5885 73.4685 13.5469C74.8727 12.349 76.8749 11.75 79.4752 11.75C82.3875 11.75 84.5717 12.2448 86.0279 13.2344C87.536 14.276 88.2901 15.7344 88.2901 17.6094V24.7188C88.2901 26.8021 87.9001 28.4427 87.12 29.6406C86.3919 30.7865 85.5078 31.6198 84.4677 32.1406Z" fill="white"></path><path d="M102.862 33H97.3235L90.0687 12.2188H95.8414L99.9758 26.8281L103.642 14.0938C104.058 12.8438 104.89 12.2188 106.139 12.2188H110.195L102.862 33Z" fill="white"></path><path d="M126.561 26.5938H130.462C129.89 28.7812 128.797 30.4479 127.185 31.5938C125.573 32.7917 123.545 33.3906 121.101 33.3906C118.136 33.3906 115.822 32.4271 114.158 30.5C112.494 28.625 111.662 25.9427 111.662 22.4531C111.662 19.1198 112.468 16.5156 114.08 14.6406C115.744 12.7135 118.058 11.75 121.023 11.75C124.143 11.75 126.561 12.6875 128.277 14.5625C129.942 16.4896 130.774 19.1719 130.774 22.6094C130.774 22.8177 130.774 23 130.774 23.1562C130.774 23.3125 130.774 23.4167 130.774 23.4688C130.774 23.7292 130.748 23.9115 130.696 24.0156H117.2C117.252 25.6302 117.642 26.8281 118.37 27.6094C119.046 28.4427 120.06 28.8594 121.413 28.8594C122.297 28.8594 123.051 28.6771 123.675 28.3125C123.831 28.2604 123.961 28.1823 124.065 28.0781C124.221 27.9219 124.377 27.7656 124.533 27.6094C124.585 27.4531 124.767 27.2448 125.079 26.9844C125.443 26.724 125.937 26.5938 126.561 26.5938ZM117.2 20.5H125.157C125.053 19.0938 124.689 18.0521 124.065 17.375C123.389 16.6458 122.427 16.2812 121.179 16.2812C120.034 16.2812 119.098 16.6458 118.37 17.375C117.642 18.1042 117.252 19.1458 117.2 20.5Z" fill="white"></path><path d="M132.63 33V28.8594L143.785 16.5156H135.907C135.178 16.5156 134.554 16.2812 134.034 15.8125C133.514 15.2917 133.254 14.6667 133.254 13.9375V12.2188H150.26V16.6719L139.261 28.4688H150.65V33H132.63Z" fill="white"></path><path d="M152.975 12.2188H155.783C156.511 12.2188 157.135 12.4792 157.655 13C158.175 13.5208 158.435 14.1458 158.435 14.875V33H152.975V12.2188ZM152.975 6.125H155.783C156.511 6.125 157.135 6.38542 157.655 6.90625C158.175 7.42708 158.435 8.05208 158.435 8.78125V10.4219H152.975V6.125Z" fill="white"></path><path d="M174.1 26.5938H178C177.428 28.7812 176.336 30.4479 174.724 31.5938C173.111 32.7917 171.083 33.3906 168.639 33.3906C165.675 33.3906 163.36 32.4271 161.696 30.5C160.032 28.625 159.2 25.9427 159.2 22.4531C159.2 19.1198 160.006 16.5156 161.618 14.6406C163.282 12.7135 165.597 11.75 168.561 11.75C171.681 11.75 174.1 12.6875 175.816 14.5625C176.752 15.7083 177.428 17.0365 177.844 18.5469H172.383C172.123 18.026 171.863 17.6354 171.603 17.375C170.927 16.6458 169.965 16.2812 168.717 16.2812C167.573 16.2812 166.637 16.6458 165.909 17.375C164.973 18.4167 164.505 20.1354 164.505 22.5312C164.505 24.9271 164.973 26.6198 165.909 27.6094C166.585 28.4427 167.599 28.8594 168.951 28.8594C169.835 28.8594 170.589 28.6771 171.213 28.3125C171.369 28.2604 171.499 28.1823 171.603 28.0781C171.759 27.9219 171.915 27.7656 172.071 27.6094C172.175 27.4531 172.383 27.2448 172.695 26.9844C173.007 26.724 173.476 26.5938 174.1 26.5938Z" fill="white"></path><g clip-path="url(#clip0_174_569)"><path d="M34.0589 34.3323C31.0694 37.3263 27.3717 39.1791 23.5056 39.89C19.5192 40.6234 15.8312 37.5909 15.7901 33.5322C15.7469 29.2878 17.3424 25.03 20.576 21.7912C20.9013 21.4654 21.2371 21.1564 21.5819 20.8634L21.5851 20.8613L21.674 20.795L29.0154 34.349C29.0154 34.349 29.2148 34.1493 29.8644 33.4987C30.5133 32.8489 30.1137 31.6483 30.1137 31.6483L26.5073 17.9934L26.0548 16.2799C26.0548 16.2799 26.0185 16.2436 30.3135 11.9422C34.6081 7.64114 34.0589 5.89062 34.0589 5.89062C37.6883 9.5254 39.6381 14.206 39.908 18.9642C40.2211 24.4863 38.2713 30.1133 34.0589 34.3323Z" fill="#4D40CA"></path><path d="M34.0589 5.8903C34.0589 5.8903 32.3107 5.34031 28.0164 9.64136C23.721 13.9431 23.6848 13.9068 23.6848 13.9068L21.9738 13.4532L8.33924 9.84179C8.33924 9.84179 7.14049 9.44162 6.49161 10.0915C5.84237 10.7417 5.64258 10.9418 5.64258 10.9418L19.1764 18.2944L19.1102 18.3835L19.1081 18.3866C18.8155 18.732 18.507 19.0682 18.1816 19.394C14.948 22.6325 10.6963 24.23 6.45814 24.1871C2.40513 24.1452 -0.622761 20.4518 0.109457 16.4597C0.819708 12.5879 2.66943 8.88465 5.65897 5.89065C9.87201 1.67167 15.4906 -0.281036 21.0045 0.0325415C25.7556 0.303168 30.4292 2.25552 34.0589 5.8903Z" fill="#FB5B32"></path></g><defs><clipPath id="clip0_174_569"><rect width="39.9404" height="40" fill="white"></rect></clipPath></defs></svg>