<svg xmlns="http://www.w3.org/2000/svg" width="178" height="40" viewBox="0 0 178 40" fill="none"><path d="M62.9532 18.0781C62.1731 16.9844 61.107 16.4375 59.7549 16.4375C58.2987 16.4375 57.1806 16.9583 56.4005 18C55.6204 19.0417 55.2304 20.474 55.2304 22.2969V33H49.9258V6.125H52.5781C53.3062 6.125 53.9302 6.38542 54.4503 6.90625C54.9703 7.42708 55.2304 8.05208 55.2304 8.78125V14.9531C56.1665 13.3906 57.4926 12.401 59.2088 11.9844C60.925 11.5677 62.5632 11.6719 64.1233 12.2969C65.5795 12.9219 66.8016 13.9115 67.7897 15.2656C68.7779 16.6198 69.2719 18.4948 69.2719 20.8906V33H64.0453V22.2188C64.0453 21.4375 63.9673 20.7344 63.8113 20.1094C63.7073 19.4323 63.4213 18.7552 62.9532 18.0781Z" fill="black"></path><path d="M83.2198 22.5312C82.4918 22.8958 81.4777 23.2344 80.1775 23.5469C78.9814 23.8073 78.3833 23.9375 78.3833 23.9375C77.4472 24.1979 76.7711 24.5365 76.3551 24.9531C75.9911 25.526 75.809 26.099 75.809 26.6719C75.809 27.4531 76.0431 28.0781 76.5111 28.5469C76.9792 28.9635 77.6552 29.1719 78.5393 29.1719C79.9955 29.1719 81.1396 28.7552 81.9717 27.9219C82.8038 27.0885 83.2198 25.9427 83.2198 24.4844V22.5312ZM84.468 32.1406C83.3759 32.7135 82.2057 33.0521 80.9576 33.1562C79.7615 33.3125 78.6954 33.3906 77.7592 33.3906C75.887 33.3906 74.2489 32.8958 72.8447 31.9062C71.4406 30.8646 70.7385 29.1719 70.7385 26.8281C70.7385 24.6406 71.3625 23.0781 72.6107 22.1406C73.9108 21.2031 75.549 20.5781 77.5252 20.2656C77.7852 20.2656 78.0973 20.2396 78.4613 20.1875C78.8254 20.0833 79.2414 20.0052 79.7095 19.9531C81.9977 19.6406 83.1418 18.9635 83.1418 17.9219C83.1418 17.1406 82.7258 16.6458 81.8937 16.4375C81.1136 16.1771 80.3855 16.0469 79.7095 16.0469C78.9814 16.0469 78.3313 16.151 77.7592 16.3594C77.1872 16.5677 76.7711 16.9583 76.5111 17.5312H71.2845C71.4926 15.9167 72.2206 14.5885 73.4688 13.5469C74.8729 12.349 76.8752 11.75 79.4754 11.75C82.3878 11.75 84.572 12.2448 86.0282 13.2344C87.5363 14.276 88.2904 15.7344 88.2904 17.6094V24.7188C88.2904 26.8021 87.9004 28.4427 87.1203 29.6406C86.3922 30.7865 85.5081 31.6198 84.468 32.1406Z" fill="black"></path><path d="M102.862 33H97.3238L90.069 12.2188H95.8416L99.9761 26.8281L103.642 14.0938C104.059 12.8438 104.891 12.2188 106.139 12.2188H110.195L102.862 33Z" fill="black"></path><path d="M126.561 26.5938H130.462C129.89 28.7812 128.798 30.4479 127.185 31.5938C125.573 32.7917 123.545 33.3906 121.101 33.3906C118.136 33.3906 115.822 32.4271 114.158 30.5C112.494 28.625 111.662 25.9427 111.662 22.4531C111.662 19.1198 112.468 16.5156 114.08 14.6406C115.744 12.7135 118.058 11.75 121.023 11.75C124.143 11.75 126.561 12.6875 128.278 14.5625C129.942 16.4896 130.774 19.1719 130.774 22.6094C130.774 22.8177 130.774 23 130.774 23.1562C130.774 23.3125 130.774 23.4167 130.774 23.4688C130.774 23.7292 130.748 23.9115 130.696 24.0156H117.2C117.252 25.6302 117.642 26.8281 118.371 27.6094C119.047 28.4427 120.061 28.8594 121.413 28.8594C122.297 28.8594 123.051 28.6771 123.675 28.3125C123.831 28.2604 123.961 28.1823 124.065 28.0781C124.221 27.9219 124.377 27.7656 124.533 27.6094C124.585 27.4531 124.767 27.2448 125.079 26.9844C125.443 26.724 125.937 26.5938 126.561 26.5938ZM117.2 20.5H125.157C125.053 19.0938 124.689 18.0521 124.065 17.375C123.389 16.6458 122.427 16.2812 121.179 16.2812C120.035 16.2812 119.099 16.6458 118.371 17.375C117.642 18.1042 117.252 19.1458 117.2 20.5Z" fill="black"></path><path d="M132.63 33V28.8594L143.786 16.5156H135.907C135.179 16.5156 134.555 16.2812 134.035 15.8125C133.515 15.2917 133.255 14.6667 133.255 13.9375V12.2188H150.26V16.6719L139.261 28.4688H150.65V33H132.63Z" fill="black"></path><path d="M152.975 12.2188H155.783C156.512 12.2188 157.136 12.4792 157.656 13C158.176 13.5208 158.436 14.1458 158.436 14.875V33H152.975V12.2188ZM152.975 6.125H155.783C156.512 6.125 157.136 6.38542 157.656 6.90625C158.176 7.42708 158.436 8.05208 158.436 8.78125V10.4219H152.975V6.125Z" fill="black"></path><path d="M174.1 26.5938H178C177.428 28.7812 176.336 30.4479 174.724 31.5938C173.112 32.7917 171.084 33.3906 168.639 33.3906C165.675 33.3906 163.361 32.4271 161.696 30.5C160.032 28.625 159.2 25.9427 159.2 22.4531C159.2 19.1198 160.006 16.5156 161.618 14.6406C163.283 12.7135 165.597 11.75 168.561 11.75C171.682 11.75 174.1 12.6875 175.816 14.5625C176.752 15.7083 177.428 17.0365 177.844 18.5469H172.384C172.124 18.026 171.864 17.6354 171.604 17.375C170.928 16.6458 169.965 16.2812 168.717 16.2812C167.573 16.2812 166.637 16.6458 165.909 17.375C164.973 18.4167 164.505 20.1354 164.505 22.5312C164.505 24.9271 164.973 26.6198 165.909 27.6094C166.585 28.4427 167.599 28.8594 168.951 28.8594C169.835 28.8594 170.589 28.6771 171.214 28.3125C171.37 28.2604 171.5 28.1823 171.604 28.0781C171.76 27.9219 171.916 27.7656 172.072 27.6094C172.176 27.4531 172.384 27.2448 172.696 26.9844C173.008 26.724 173.476 26.5938 174.1 26.5938Z" fill="black"></path><g clip-path="url(#clip0_472_8413)"><path d="M34.0588 34.3322C31.0692 37.3262 27.3715 39.179 23.5054 39.89C19.519 40.6233 15.8311 37.5909 15.7899 33.5322C15.7467 29.2877 17.3422 25.03 20.5758 21.7912C20.9011 21.4654 21.2369 21.1563 21.5818 20.8634L21.5849 20.8613L21.6738 20.7949L29.0152 34.349C29.0152 34.349 29.2146 34.1492 29.8642 33.4987C30.5131 32.8488 30.1135 31.6483 30.1135 31.6483L26.5071 17.9933L26.0546 16.2798C26.0546 16.2798 26.0183 16.2435 30.3133 11.9421C34.6079 7.64108 34.0588 5.89056 34.0588 5.89056C37.6881 9.52534 39.6379 14.206 39.9078 18.9641C40.2209 24.4863 38.2711 30.1132 34.0588 34.3322Z" fill="#4D40CA"></path><path d="M34.0591 5.89024C34.0591 5.89024 32.3108 5.34025 28.0165 9.64129C23.7212 13.943 23.6849 13.9067 23.6849 13.9067L21.974 13.4531L8.33939 9.84173C8.33939 9.84173 7.14065 9.44155 6.49176 10.0914C5.84253 10.7416 5.64274 10.9417 5.64274 10.9417L19.1766 18.2944L19.1103 18.3834L19.1082 18.3865C18.8157 18.7319 18.5071 19.0682 18.1818 19.394C14.9482 22.6324 10.6964 24.23 6.45829 24.187C2.40529 24.1451 -0.622609 20.4517 0.109609 16.4597C0.819861 12.5878 2.66958 8.88459 5.65912 5.89058C9.87217 1.6716 15.4907 -0.281097 21.0047 0.0324805C25.7557 0.303107 30.4294 2.25546 34.0591 5.89024Z" fill="#FB5B32"></path></g><defs><clipPath id="clip0_472_8413"><rect width="39.9404" height="40" fill="white"></rect></clipPath></defs></svg>